<svg width="24" height="24" viewBox="0 0 24 24" fill="none" xmlns="http://www.w3.org/2000/svg">
  <!-- 中心星形核心 -->
  <circle cx="12" cy="12" r="3" fill="currentColor"/>
  
  <!-- 星形光芒（8个方向） -->
  <line x1="12" y1="3" x2="12" y2="7" stroke="currentColor" stroke-width="2" stroke-linecap="round"/>
  <line x1="17.5" y1="6.5" x2="14.5" y2="9.5" stroke="currentColor" stroke-width="2" stroke-linecap="round"/>
  <line x1="21" y1="12" x2="17" y2="12" stroke="currentColor" stroke-width="2" stroke-linecap="round"/>
  <line x1="17.5" y1="17.5" x2="14.5" y2="14.5" stroke="currentColor" stroke-width="2" stroke-linecap="round"/>
  <line x1="12" y1="21" x2="12" y2="17" stroke="currentColor" stroke-width="2" stroke-linecap="round"/>
  <line x1="6.5" y1="17.5" x2="9.5" y2="14.5" stroke="currentColor" stroke-width="2" stroke-linecap="round"/>
  <line x1="3" y1="12" x2="7" y2="12" stroke="currentColor" stroke-width="2" stroke-linecap="round"/>
  <line x1="6.5" y1="6.5" x2="9.5" y2="9.5" stroke="currentColor" stroke-width="2" stroke-linecap="round"/>
  
  <!-- 外围环形飘带 -->
  <path d="M 7,4 Q 4,3 4,6 Q 4,8 5,9" 
        stroke="currentColor" stroke-width="2" fill="none" stroke-linecap="round"/>
  <path d="M 17,4 Q 20,3 20,6 Q 20,9 19,10" 
        stroke="currentColor" stroke-width="2" fill="none" stroke-linecap="round"/>
  <path d="M 7,20 Q 4,21 4,18 Q 4,15 5,14" 
        stroke="currentColor" stroke-width="2" fill="none" stroke-linecap="round"/>
  <path d="M 17,20 Q 20,21 20,18 Q 20,15 19,14" 
        stroke="currentColor" stroke-width="2" fill="none" stroke-linecap="round"/>
  
  <!-- 刻度线装饰 -->
  <line x1="9" y1="3.5" x2="9" y2="4.5" stroke="currentColor" stroke-width="1.5"/>
  <line x1="15" y1="3.5" x2="15" y2="4.5" stroke="currentColor" stroke-width="1.5"/>
  <line x1="19.5" y1="9" x2="20.5" y2="9" stroke="currentColor" stroke-width="1.5"/>
  <line x1="19.5" y1="15" x2="20.5" y2="15" stroke="currentColor" stroke-width="1.5"/>
  <line x1="9" y1="19.5" x2="9" y2="20.5" stroke="currentColor" stroke-width="1.5"/>
  <line x1="15" y1="19.5" x2="15" y2="20.5" stroke="currentColor" stroke-width="1.5"/>
  <line x1="3.5" y1="9" x2="4.5" y2="9" stroke="currentColor" stroke-width="1.5"/>
  <line x1="3.5" y1="15" x2="4.5" y2="15" stroke="currentColor" stroke-width="1.5"/>
</svg>
